<svg id="Capa_1" enable-background="new 0 0 512 512" height="512" viewBox="0 0 512 512" width="512" xmlns="http://www.w3.org/2000/svg"><g><path d="m504.5 504.5h-30l-60-248.5 60-248.5h30z" fill="#acd2f6"/><path d="m474.5 504.5h-30l-60-248.5 60-248.5h30z" fill="#95b0ed"/><path d="m97.5 399.5h347v105h-347z" fill="#acd2f6"/><path d="m324.5 269.5-227 130h-90c0 24.853 20.147 45 45 45h317z" fill="#c4f3ff"/><path d="m324.5 269.5v130c0 24.853 20.147 45 45 45h30v-175z" fill="#acd2f6"/><path d="m414.5 7.5-30 434.429c4.693 1.659 9.739 2.571 15 2.571 24.853 0 45-20.147 45-45v-166l-15-45 15-30v-151z" fill="#c4f3ff"/><path d="m97.5 7.5v392h257c0 19.592 12.524 36.25 30 42.429 17.476-6.179 30-22.837 30-42.429v-392z" fill="#fff"/><path d="m97.5 173.5-90 15v30l90 15 30-30z" fill="#318de9"/><path d="m384.5 173.5-30 30 30 30h30v-60z" fill="#fff7e8"/><path d="m489.5 188.5h-75v30h75c8.284 0 15-6.716 15-15s-6.716-15-15-15z" fill="#3f6dde"/><path d="m384.5 173.5-30 30 30 30h60v-45z" fill="#14cfff"/><path d="m232.5 173.5-30 30 30 30h152v-60z" fill="#3f6dde"/><path d="m97.5 173.5h135v60h-135z" fill="#14cfff"/><path d="m324.5 158.5c-8.284 0-15 6.716-15 15s6.716 15 15 15h120v-30z" fill="#6ce1ff"/><path d="m504.5 0h-407c-4.142 0-7.5 3.358-7.5 7.5v159.646l-83.733 13.956c-3.617.603-6.267 3.731-6.267 7.398v30c0 3.667 2.65 6.795 6.267 7.398l83.733 13.956v152.146h-82.5c-4.142 0-7.5 3.358-7.5 7.5 0 28.949 23.551 52.5 52.5 52.5h347c28.949 0 52.5-23.551 52.5-52.5v-173.5h15v271h-362v-22.5c0-4.142-3.358-7.5-7.5-7.5s-7.5 3.358-7.5 7.5v30c0 4.142 3.358 7.5 7.5 7.5h407c4.142 0 7.5-3.358 7.5-7.5v-497c0-4.142-3.358-7.5-7.5-7.5zm-7.5 182.29c-2.347-.833-4.871-1.29-7.5-1.29h-7.5v-166h15zm-392-1.29h120v45h-120zm135 0h63.29c3.096 8.729 11.432 15 21.21 15h52.5v30h-137zm152 15h45v30h-45zm-67.5-15c-4.136 0-7.5-3.364-7.5-7.5s3.364-7.5 7.5-7.5h112.5v15zm127.5-166h15v166h-15zm-15 0v136h-112.5c-9.778 0-18.114 6.271-21.21 15h-198.29v-151zm-422 197.146v-17.293l75-12.5v42.293zm37.5 224.854c-18.109 0-33.262-12.905-36.747-30h331.781c1.677 11.673 7.208 22.118 15.259 30zm347 0c-20.678 0-37.5-16.822-37.5-37.5 0-4.142-3.358-7.5-7.5-7.5h-249.5v-151h332v158.5c0 20.678-16.822 37.5-37.5 37.5zm52.5-241h37.5c4.136 0 7.5 3.364 7.5 7.5s-3.364 7.5-7.5 7.5h-37.5zm30 301v-271h7.5c2.629 0 5.153-.458 7.5-1.29v272.29z"/></g></svg>