<svg id="Capa_1" enable-background="new 0 0 512 512" height="512" viewBox="0 0 512 512" width="512" xmlns="http://www.w3.org/2000/svg"><g><path d="m504.5 241h-30l-60-116.75 60-116.75h30z" fill="#ff7647"/><path d="m474.5 241h-203.5v-116.75-116.75h86.75l30 30 30-30h56.75z" fill="#ff9733"/><path d="m387.75 7.5-15 28.375 15 43.375 30 15v-86.75z" fill="#ffe7b5"/><path d="m357.75 7.5v86.75l30-15v-71.75z" fill="#fff"/><path d="m241 241h-30l-60-116.75 60-116.75h30z" fill="#ff9733"/><path d="m211 241h-203.5v-116.75-116.75h86.75l30 30 30-30h56.75z" fill="#ffb44e"/><path d="m124.25 7.5-15 28.375 15 43.375 30 15v-86.75z" fill="#ffe7b5"/><path d="m94.25 7.5v86.75l30-15v-71.75z" fill="#fff"/><path d="m504.5 504.5h-30l-60-116.75 60-116.75h30z" fill="#ff9733"/><path d="m474.5 504.5h-203.5v-116.75-116.75h86.75l30 30 30-30h56.75z" fill="#ffb44e"/><path d="m387.75 271-15 28.375 15 43.375 30 15v-86.75z" fill="#ffe7b5"/><path d="m357.75 271v86.75l30-15v-71.75z" fill="#fff"/><path d="m241 504.5h-30l-60-116.75 60-116.75h30z" fill="#ff7647"/><path d="m211 504.5h-203.5v-116.75-116.75h86.75l30 30 30-30h56.75z" fill="#ff9733"/><path d="m124.25 271-15 28.375 15 43.375 30 15v-86.75z" fill="#ffe7b5"/><path d="m94.25 271v86.75l30-15v-71.75z" fill="#fff"/><path d="m504.5 0h-233.5c-4.142 0-7.5 3.358-7.5 7.5v233.5c0 4.142 3.358 7.5 7.5 7.5h233.5c4.142 0 7.5-3.358 7.5-7.5v-233.5c0-4.142-3.358-7.5-7.5-7.5zm-139.25 15h45v67.115l-19.146-9.573c-2.111-1.056-4.597-1.056-6.708 0l-19.146 9.573zm131.75 218.5h-218.5v-218.5h71.75v79.25c0 2.599 1.346 5.013 3.557 6.38s4.971 1.491 7.297.328l26.646-13.323 26.646 13.323c1.059.529 2.208.792 3.354.792 1.372 0 2.739-.376 3.943-1.12 2.211-1.367 3.557-3.781 3.557-6.38v-79.25h71.75z"/><path d="m241 0h-233.5c-4.142 0-7.5 3.358-7.5 7.5v233.5c0 4.142 3.358 7.5 7.5 7.5h233.5c4.142 0 7.5-3.358 7.5-7.5v-233.5c0-4.142-3.358-7.5-7.5-7.5zm-139.25 15h45v67.115l-19.146-9.573c-2.111-1.056-4.597-1.056-6.708 0l-19.146 9.573zm131.75 218.5h-218.5v-218.5h71.75v79.25c0 2.599 1.346 5.013 3.557 6.38s4.972 1.491 7.297.328l26.646-13.323 26.646 13.323c1.059.529 2.208.792 3.354.792 1.372 0 2.739-.376 3.943-1.12 2.211-1.367 3.557-3.781 3.557-6.38v-79.25h71.75z"/><path d="m504.5 263.5h-233.5c-4.142 0-7.5 3.358-7.5 7.5v233.5c0 4.142 3.358 7.5 7.5 7.5h233.5c4.142 0 7.5-3.358 7.5-7.5v-233.5c0-4.142-3.358-7.5-7.5-7.5zm-139.25 15h45v67.115l-19.146-9.573c-2.111-1.056-4.597-1.056-6.708 0l-19.146 9.573zm131.75 218.5h-218.5v-218.5h71.75v79.25c0 2.599 1.346 5.013 3.557 6.38s4.971 1.491 7.297.328l26.646-13.323 26.646 13.323c1.059.529 2.208.792 3.354.792 1.372 0 2.739-.376 3.943-1.12 2.211-1.367 3.557-3.781 3.557-6.38v-79.25h71.75z"/><path d="m241 263.5h-146.75c-4.142 0-7.5 3.358-7.5 7.5v86.75c0 2.599 1.346 5.013 3.557 6.38s4.973 1.491 7.297.328l26.646-13.323 26.646 13.323c2.325 1.162 5.086 1.038 7.297-.328 2.211-1.367 3.557-3.781 3.557-6.38v-79.25h71.75v218.5h-218.5v-218.5h49.25c4.142 0 7.5-3.358 7.5-7.5s-3.358-7.5-7.5-7.5h-56.75c-4.142 0-7.5 3.358-7.5 7.5v233.5c0 4.142 3.358 7.5 7.5 7.5h233.5c4.142 0 7.5-3.358 7.5-7.5v-233.5c0-4.142-3.358-7.5-7.5-7.5zm-94.25 82.115-19.146-9.573c-1.056-.528-2.205-.792-3.354-.792s-2.298.264-3.354.792l-19.146 9.573v-67.115h45z"/></g></svg>