<svg id="Capa_1" enable-background="new 0 0 512 512" height="512" viewBox="0 0 512 512" width="512" xmlns="http://www.w3.org/2000/svg"><g><path d="m503.475 278.5c.665-7.413 1.025-14.914 1.025-22.5s-.359-15.087-1.025-22.5l-31.035-7.5c-2.504-18.233-7.256-35.746-13.97-52.256l23.099-21.996c-3.13-6.753-6.569-13.428-10.363-19.998-3.793-6.57-7.855-12.886-12.137-18.973l-30.634 9.026c-11.12-14.268-23.971-27.119-38.239-38.239l9.026-30.634c-6.087-4.283-12.403-8.344-18.973-12.137-6.569-3.793-13.244-7.233-19.997-10.363l-21.996 23.099c-16.509-6.714-34.023-11.466-52.256-13.97v15c89.532 13.609 158.5 98.603 158.5 201.441s-68.968 187.832-158.5 201.44v15c18.233-2.504 35.746-7.256 52.256-13.97l21.996 23.099c6.753-3.13 13.428-6.569 19.998-10.363 6.57-3.793 12.886-7.855 18.973-12.137l-9.026-30.634c14.268-11.12 27.119-23.971 38.239-38.239l30.634 9.026c4.283-6.087 8.344-12.403 12.137-18.973s7.232-13.245 10.363-19.998l-23.099-21.996c6.714-16.509 11.466-34.023 13.97-52.256z" fill="#95b0ed"/><path d="m444.5 256c0-110.496-68.968-201.819-158.5-216.441l-7.5-31.035c-7.413-.665-14.914-1.024-22.5-1.024s-15.087.359-22.5 1.025l-7.5 31.034c-18.233 2.504-35.746 7.256-52.256 13.97l-21.996-23.099c-6.753 3.13-13.428 6.57-19.998 10.363s-12.886 7.855-18.973 12.137l9.026 30.634c-14.268 11.12-27.119 23.971-38.239 38.239l-30.634-9.026c-4.283 6.087-8.344 12.403-12.137 18.973s-7.233 13.245-10.363 19.998l23.099 21.996c-6.714 16.509-11.466 34.023-13.97 52.256l-31.035 7.5c-.665 7.413-1.024 14.914-1.024 22.5s.359 15.087 1.025 22.5l31.035 7.5c2.504 18.233 7.256 35.746 13.97 52.256l-23.1 21.996c3.13 6.753 6.569 13.428 10.363 19.998 3.793 6.57 7.855 12.886 12.137 18.973l30.634-9.026c11.12 14.268 23.971 27.119 38.239 38.239l-9.026 30.634c6.087 4.283 12.403 8.344 18.973 12.137s13.245 7.232 19.998 10.363l21.996-23.099c16.509 6.714 34.023 11.466 52.256 13.97l7.5 31.035c7.413.665 14.914 1.025 22.5 1.025s15.087-.359 22.5-1.025l7.5-31.035c89.532-14.622 158.5-105.945 158.5-216.441zm-188.5 173.5c-95.821 0-173.5-77.679-173.5-173.5s77.679-173.5 173.5-173.5 173.5 77.679 173.5 173.5-77.679 173.5-173.5 173.5z" fill="#acd2f6"/><circle cx="256" cy="256" fill="#fff" r="188.5"/><path d="m97.5 256 45-30 45 30c0 18.916 7.667 36.041 20.063 48.437l-63.64 63.64c-28.682-28.683-46.423-68.308-46.423-112.077z" fill="#ffe7b5"/><path d="m97.5 256h90c0-18.916 7.667-36.041 20.063-48.437v-63.64h-63.64c-28.682 28.683-46.423 68.308-46.423 112.077z" fill="#ffb44e"/><path d="m414.5 256c0 43.769-17.741 83.394-46.424 112.076l-12.262-12.262 13.686-129.814z" fill="#ff0787"/><path d="m355.814 355.814-51.377-51.377c12.396-12.396 20.063-29.521 20.063-48.437l45-30 15 30c0 37.833-10.753 72.564-28.686 99.814z" fill="#ff336d"/><path d="m414.5 256c0-43.769-17.741-83.394-46.424-112.076h-63.64l80.064 112.076z" fill="#ff336d"/><path d="m355.814 156.186-51.377-12.262v63.64c12.396 12.395 20.063 29.52 20.063 48.436h60c0-37.833-10.753-72.564-28.686-99.814z" fill="#ff545a"/><path d="m256 97.5 99.814 58.686 12.262-12.262c-28.682-28.683-68.307-46.424-112.076-46.424z" fill="#ff545a"/><path d="m256 97.5-30 45 30 45c18.916 0 36.041 7.667 48.437 20.063l51.377-51.377c-23.56-35.801-59.518-58.686-99.814-58.686z" fill="#ff7647"/><path d="m143.924 143.924 63.64 63.64c12.395-12.397 29.52-20.064 48.436-20.064v-90c-43.769 0-83.394 17.741-112.076 46.424z" fill="#ff9733"/><path d="m256 127.5c-8.284 0-15 6.716-15 15v182c0 8.284 6.716 15 15 15s15-6.716 15-15v-182c0-8.284-6.716-15-15-15z" fill="#4e4cd3"/><circle cx="256" cy="256" fill="#acd2f6" r="30"/><circle cx="256" cy="256" r="7.5"/><path d="m510.945 232.829c-.288-3.201-2.583-5.864-5.708-6.619l-26.123-6.313c-2.428-15.103-6.391-29.929-11.816-44.201l19.444-18.516c2.328-2.217 2.984-5.67 1.633-8.586-3.292-7.101-6.882-14.029-10.672-20.594-3.788-6.562-7.994-13.135-12.499-19.538-1.849-2.63-5.169-3.785-8.253-2.879l-25.797 7.601c-9.66-11.832-20.505-22.678-32.336-32.337l7.601-25.797c.909-3.084-.25-6.404-2.879-8.254-6.403-4.505-12.977-8.71-19.539-12.498-6.561-3.788-13.49-7.379-20.593-10.672-2.916-1.353-6.37-.694-8.586 1.632l-18.516 19.445c-14.273-5.426-29.1-9.39-44.201-11.816l-6.315-26.124c-.755-3.125-3.418-5.421-6.62-5.708-7.799-.701-15.594-1.055-23.17-1.055s-15.371.354-23.17 1.055c-3.202.287-5.865 2.583-6.62 5.708l-6.313 26.124c-15.101 2.427-29.927 6.391-44.2 11.816l-18.517-19.445c-2.217-2.329-5.671-2.983-8.586-1.632-7.104 3.293-14.033 6.884-20.594 10.672-6.562 3.788-13.136 7.993-19.539 12.498-2.629 1.85-3.788 5.17-2.879 8.254l7.601 25.797c-11.832 9.659-22.677 20.505-32.336 32.337l-25.797-7.601c-3.085-.906-6.404.249-8.253 2.879-4.503 6.399-8.708 12.973-12.499 19.538-3.788 6.56-7.378 13.488-10.671 20.594-1.352 2.916-.695 6.369 1.632 8.586l19.444 18.516c-5.425 14.272-9.389 29.099-11.816 44.201l-26.124 6.313c-3.125.755-5.421 3.418-5.708 6.619-.7 7.798-1.055 15.593-1.055 23.171s.355 15.373 1.055 23.171c.288 3.201 2.583 5.864 5.708 6.619l26.124 6.313c2.427 15.103 6.391 29.929 11.816 44.201l-19.445 18.516c-2.328 2.217-2.984 5.67-1.632 8.586 3.293 7.105 6.884 14.034 10.671 20.595 3.791 6.564 7.996 13.138 12.499 19.537 1.849 2.629 5.169 3.783 8.253 2.879l25.797-7.601c9.66 11.832 20.505 22.678 32.336 32.337l-7.601 25.797c-.909 3.084.25 6.404 2.879 8.254 6.403 4.505 12.977 8.71 19.539 12.498 6.561 3.788 13.49 7.379 20.593 10.672 2.915 1.353 6.37.695 8.586-1.632l18.517-19.445c14.273 5.426 29.099 9.39 44.2 11.816l6.313 26.124c.755 3.125 3.418 5.421 6.62 5.708 7.799.7 15.595 1.055 23.17 1.055s15.371-.354 23.17-1.055c3.202-.287 5.865-2.583 6.62-5.708l6.313-26.124c15.101-2.427 29.927-6.391 44.201-11.816l18.516 19.445c2.216 2.327 5.67 2.983 8.586 1.632 7.104-3.293 14.032-6.884 20.593-10.672 6.562-3.788 13.136-7.993 19.539-12.498 2.629-1.85 3.788-5.17 2.879-8.254l-7.601-25.797c11.832-9.659 22.677-20.505 32.336-32.337l25.797 7.601c3.087.909 6.404-.248 8.253-2.879 4.505-6.403 8.711-12.977 12.499-19.538 3.79-6.564 7.38-13.493 10.672-20.594 1.352-2.916.695-6.369-1.633-8.586l-19.444-18.516c5.425-14.272 9.389-29.099 11.816-44.201l26.123-6.313c3.125-.755 5.421-3.418 5.708-6.619.7-7.798 1.055-15.593 1.055-23.171s-.351-15.373-1.051-23.171zm-14.517 39.658-25.749 6.223c-3 .725-5.249 3.213-5.668 6.27-2.379 17.32-6.917 34.295-13.487 50.451-1.161 2.855-.457 6.131 1.776 8.257l19.162 18.247c-2.45 5.003-5.046 9.885-7.749 14.565-2.701 4.679-5.63 9.367-8.739 13.991l-25.418-7.488c-2.955-.87-6.142.153-8.035 2.584-10.734 13.772-23.161 26.199-36.934 36.933-2.43 1.895-3.455 5.081-2.584 8.036l7.489 25.418c-4.624 3.108-9.313 6.037-13.992 8.738s-9.561 5.298-14.566 7.749l-18.247-19.162c-2.126-2.232-5.403-2.938-8.257-1.775-16.159 6.57-33.133 11.108-50.451 13.486-3.057.42-5.545 2.67-6.27 5.669l-6.223 25.749c-5.559.38-11.084.572-16.486.572s-10.927-.192-16.487-.572l-6.223-25.749c-.725-2.999-3.212-5.249-6.27-5.669-17.319-2.378-34.293-6.916-50.451-13.486-2.854-1.161-6.13-.456-8.256 1.775l-18.248 19.162c-5.005-2.451-9.887-5.048-14.566-7.749s-9.368-5.63-13.992-8.738l7.489-25.418c.871-2.955-.154-6.142-2.584-8.036-13.772-10.733-26.199-23.16-36.934-36.933-1.894-2.43-5.079-3.452-8.035-2.584l-25.418 7.488c-3.107-4.622-6.037-9.311-8.739-13.991-2.701-4.678-5.297-9.56-7.749-14.565l19.162-18.247c2.232-2.126 2.937-5.401 1.775-8.257-6.57-16.156-11.108-33.131-13.487-50.451-.42-3.057-2.669-5.545-5.668-6.27l-25.749-6.223c-.378-5.558-.57-11.084-.57-16.487s.192-10.929.572-16.487l25.749-6.223c3-.725 5.249-3.213 5.668-6.27 2.379-17.32 6.917-34.295 13.487-50.451 1.162-2.855.457-6.131-1.775-8.257l-19.162-18.247c2.451-5.006 5.047-9.887 7.749-14.564 2.703-4.682 5.632-9.37 8.739-13.992l25.418 7.488c2.954.868 6.142-.154 8.035-2.584 10.734-13.772 23.161-26.199 36.934-36.933 2.43-1.895 3.455-5.081 2.584-8.036l-7.489-25.418c4.624-3.108 9.313-6.037 13.992-8.738s9.561-5.298 14.566-7.749l18.248 19.162c2.125 2.232 5.401 2.935 8.256 1.775 16.158-6.57 33.132-11.108 50.451-13.486 3.057-.42 5.545-2.67 6.27-5.669l6.223-25.749c5.558-.38 11.083-.572 16.485-.572s10.927.192 16.487.572l6.223 25.749c.725 2.999 3.212 5.249 6.27 5.669 17.318 2.378 34.292 6.916 50.451 13.486 2.856 1.16 6.132.457 8.257-1.775l18.247-19.162c5.005 2.451 9.887 5.048 14.566 7.749s9.368 5.63 13.992 8.738l-7.489 25.418c-.871 2.955.154 6.142 2.584 8.036 13.772 10.733 26.199 23.16 36.934 36.933 1.894 2.43 5.077 3.452 8.035 2.584l25.418-7.488c3.109 4.624 6.038 9.313 8.739 13.991 2.703 4.681 5.299 9.563 7.749 14.565l-19.162 18.247c-2.232 2.126-2.937 5.401-1.776 8.257 6.57 16.156 11.108 33.131 13.487 50.451.42 3.057 2.669 5.545 5.668 6.27l25.749 6.223c.379 5.558.571 11.084.571 16.487s-.192 10.929-.572 16.487z"/><path d="m256 60c-108.075 0-196 87.925-196 196s87.925 196 196 196 196-87.925 196-196-87.925-196-196-196zm0 377c-99.804 0-181-81.196-181-181s81.196-181 181-181 181 81.196 181 181-81.196 181-181 181z"/><path d="m256 90c-79.517 0-148.076 56.603-163.019 134.589-.779 4.068 1.887 7.998 5.955 8.777 4.063.769 7.997-1.887 8.777-5.955 5.348-27.913 18.253-52.81 36.343-72.747l53.172 53.172c-.093.113-.191.221-.283.334-9.348 11.521-15.104 25.617-16.572 40.329h-82.873c-4.142 0-7.5 3.357-7.5 7.5 0 44.341 17.267 86.026 48.621 117.38 1.464 1.464 3.384 2.196 5.303 2.196s3.839-.732 5.303-2.196l63.64-63.64c1.407-1.407 2.197-3.314 2.197-5.304s-.791-3.897-2.197-5.304c-11.522-11.519-17.867-26.837-17.867-43.131 0-25.082 15.725-47.573 38.5-56.673v26.694c-9.102 6.848-15 17.737-15 29.979s5.898 23.131 15 29.979v38.521c0 12.406 10.093 22.5 22.5 22.5s22.5-10.094 22.5-22.5v-38.521c9.102-6.848 15-17.737 15-29.979s-5.898-23.131-15-29.979v-26.694c22.775 9.1 38.5 31.592 38.5 56.673 0 16.294-6.345 31.612-17.867 43.133-1.406 1.406-2.197 3.314-2.197 5.304s.79 3.896 2.197 5.304l63.64 63.64c1.464 1.464 3.384 2.196 5.303 2.196s3.839-.732 5.303-2.196c31.354-31.355 48.621-73.04 48.621-117.381 0-91.533-74.467-166-166-166zm-58.787 214.179-53.161 53.161c-23.562-25.97-37.168-58.816-38.87-93.841h75.181c1.459 14.991 7.282 29.051 16.85 40.68zm10.635-106.938-53.175-53.175c25.258-22.832 58.136-37.111 93.827-38.875v16.099c-8.729 3.096-15 11.433-15 21.21v40.918c-9.35 2.905-18.076 7.624-25.652 13.823zm55.652 127.259c0 4.136-3.364 7.5-7.5 7.5s-7.5-3.364-7.5-7.5v-31.755c2.424.494 4.932.755 7.5.755s5.076-.261 7.5-.755zm-7.5-46c-12.407 0-22.5-10.094-22.5-22.5s10.093-22.5 22.5-22.5 22.5 10.094 22.5 22.5-10.093 22.5-22.5 22.5zm0-60c-2.568 0-5.076.261-7.5.755v-76.755c0-4.136 3.364-7.5 7.5-7.5s7.5 3.364 7.5 7.5v46.536 30.219c-2.424-.494-4.932-.755-7.5-.755zm22.5-35.082v-40.918c0-9.777-6.271-18.114-15-21.21v-16.103c35.992 1.769 68.711 16.199 93.787 38.919l-53.135 53.135c-7.576-6.199-16.302-10.918-25.652-13.823zm36.554 24.753c-.092-.114-.19-.221-.283-.334l53.123-53.123c22.72 25.076 37.15 57.795 38.919 93.787h-75.202c-1.469-14.712-7.209-28.809-16.557-40.33zm16.569 55.329h75.191c-1.702 35.025-15.303 67.87-38.866 93.841l-53.161-53.161c9.567-11.631 15.377-25.69 16.836-40.68z"/></g></svg>