<svg id="Capa_1" enable-background="new 0 0 512 512" height="512" viewBox="0 0 512 512" width="512" xmlns="http://www.w3.org/2000/svg"><g><path d="m331.39 36.493c-15.431-12.235-36.564-28.993-75.39-28.993s-59.959 16.758-75.39 28.993c-12.588 9.982-20.186 16.007-38.11 16.007l-15 15 15 15c56.75 0 56.75-45 113.5-45s56.75 45 113.5 45l15-15-15-15c-17.924 0-25.522-6.025-38.11-16.007z" fill="#acd2f6"/><path d="m127.5 52.5c-16.569 0-30 13.431-30 30l45 30v-60z" fill="#7d8fe5"/><path d="m384.5 52.5h-15v60l45-30c0-16.569-13.431-30-30-30z" fill="#666ddc"/><path d="m7.5 324.5v150c0 16.569 13.431 30 30 30h60l45-180z" fill="#ff545a"/><path d="m444.5 324.5v180h30c16.569 0 30-13.431 30-30v-150z" fill="#ff336d"/><path d="m474.5 474.5v-150h-105l45 180h30c16.569 0 30-13.431 30-30z" fill="#ff545a"/><path d="m97.5 324.5h317v180h-317z" fill="#ff336d"/><path d="m474.5 82.5h-30l-30 302h30c33.137 0 60-26.863 60-60v-212c0-16.569-13.431-30-30-30z" fill="#ff545a"/><path d="m474.5 324.5v-212c0-16.569-13.431-30-30-30h-407c-16.569 0-30 13.431-30 30v212c0 33.137 26.863 60 60 60h347c33.137 0 60-26.863 60-60z" fill="#ff7647"/><path d="m286 324.5c0-16.569-13.431-30-30-30l-15 75 45-15z" fill="#ff336d"/><path d="m226 324.5v30l30 15v-75c-16.569 0-30 13.431-30 30z" fill="#ff545a"/><path d="m256 354.5-15 60 45-30v-30z" fill="#c4f3ff"/><path d="m226 354.5v30l30 30v-60z" fill="#fff"/><path d="m256 384.5-15 30 15 30c16.569 0 30-13.431 30-30v-30z" fill="#95b0ed"/><path d="m226 384.5v30c0 16.569 13.431 30 30 30v-60z" fill="#acd2f6"/><path d="m474.5 75h-53.255c-3.484-17.096-18.635-30-36.745-30h-15c-15.311 0-21.373-4.807-33.452-14.385-15.375-12.191-38.61-30.615-80.048-30.615s-64.673 18.424-80.051 30.617c-12.076 9.576-18.138 14.383-33.449 14.383h-15c-18.11 0-33.261 12.904-36.745 30h-53.255c-20.678 0-37.5 16.822-37.5 37.5v362c0 20.678 16.822 37.5 37.5 37.5h437c20.678 0 37.5-16.822 37.5-37.5v-362c0-20.678-16.822-37.5-37.5-37.5zm-68.79 0h-28.71v-15h7.5c9.777 0 18.114 6.271 21.21 15zm-220.439-32.631c15.378-12.193 34.517-27.369 70.729-27.369s55.351 15.175 70.73 27.37c11.222 8.899 19.741 15.647 35.27 17.259v15.064c-20.881-1.771-32.433-10.931-44.59-20.57-14.26-11.307-30.422-24.123-61.41-24.123s-47.15 12.816-61.41 24.123c-12.157 9.64-23.709 18.8-44.59 20.57v-15.064c15.529-1.611 24.047-8.36 35.271-17.26zm134.924 32.631h-128.39c4.335-2.967 8.29-6.098 12.105-9.123 13.539-10.736 26.328-20.877 52.09-20.877s38.551 10.141 52.09 20.877c3.815 3.025 7.77 6.156 12.105 9.123zm-192.695-15h7.5v15h-28.71c3.096-8.729 11.433-15 21.21-15zm-112.5 414.5v-107.639c12.384 15.319 31.313 25.139 52.5 25.139h22.5v105h-52.5c-12.407 0-22.5-10.094-22.5-22.5zm263.5-97.5h-45v-15h45zm0 15v22.5c0 12.406-10.093 22.5-22.5 22.5s-22.5-10.094-22.5-22.5v-22.5zm-22.5 60c20.678 0 37.5-16.822 37.5-37.5v-22.5h113.5v105h-302v-105h113.5v22.5c0 20.678 16.822 37.5 37.5 37.5zm241 22.5c0 12.406-10.093 22.5-22.5 22.5h-52.5v-105h22.5c21.187 0 40.116-9.82 52.5-25.139zm-52.5-97.5h-151v-51.876c0-20.462-16.352-37.559-36.451-38.109-10.205-.281-19.879 3.486-27.198 10.606-7.32 7.122-11.351 16.668-11.351 26.879 0 4.143 3.358 7.5 7.5 7.5s7.5-3.357 7.5-7.5c0-6.127 2.419-11.854 6.812-16.128 4.39-4.271 10.174-6.525 16.326-6.363 12.055.331 21.862 10.7 21.862 23.115v21.876h-52.5c-4.142 0-7.5 3.357-7.5 7.5v22.5h-151c-28.949 0-52.5-23.552-52.5-52.5v-212c0-12.406 10.093-22.5 22.5-22.5h437c12.407 0 22.5 10.094 22.5 22.5v212c0 28.948-23.551 52.5-52.5 52.5z"/></g></svg>